<svg width="21" height="21" viewBox="0 0 21 21" fill="none" xmlns="http://www.w3.org/2000/svg">
<g id="icon/join">
<path id="Vector" fill-rule="evenodd" clip-rule="evenodd" d="M6.44303 6.75675C6.44303 5.74423 7.26385 4.92342 8.27637 4.92342C9.28889 4.92342 10.1097 5.74423 10.1097 6.75675C10.1097 7.76928 9.28889 8.59009 8.27637 8.59009C7.26385 8.59009 6.44303 7.76928 6.44303 6.75675ZM8.27637 3.59009C6.52747 3.59009 5.1097 5.00785 5.1097 6.75675C5.1097 8.50566 6.52747 9.92342 8.27637 9.92342C10.0253 9.92342 11.443 8.50566 11.443 6.75675C11.443 5.00785 10.0253 3.59009 8.27637 3.59009ZM13.2764 7.50773C12.9082 7.50773 12.6097 7.80621 12.6097 8.1744C12.6097 8.54259 12.9082 8.84106 13.2764 8.84106H14.859V10.4236C14.859 10.7918 15.1575 11.0903 15.5257 11.0903C15.8939 11.0903 16.1924 10.7918 16.1924 10.4236V8.84106H17.7757C18.1439 8.84106 18.4424 8.54259 18.4424 8.1744C18.4424 7.80621 18.1439 7.50773 17.7757 7.50773H16.1924V5.92342C16.1924 5.55523 15.8939 5.25675 15.5257 5.25675C15.1575 5.25675 14.859 5.55523 14.859 5.92342V7.50773H13.2764ZM13.3103 12.2571C10.2215 10.8893 6.7069 10.8482 3.58703 12.1435L3.215 12.2979C2.34404 12.6595 1.77637 13.5099 1.77637 14.4529V16.2569C1.77637 16.6251 2.07484 16.9236 2.44303 16.9236H14.1097C14.4779 16.9236 14.7764 16.6251 14.7764 16.2569V14.425C14.7764 13.5017 14.232 12.6653 13.3879 12.2915L13.3103 12.2571ZM4.09828 13.3749C6.88087 12.2196 10.0155 12.2563 12.7704 13.4763L12.848 13.5106C13.2097 13.6708 13.443 14.0293 13.443 14.425V15.5903H3.1097V14.4529C3.1097 14.0488 3.35299 13.6843 3.72626 13.5294L4.09828 13.3749Z" fill="#414142"/>
</g>
</svg>
