<svg width="21" height="21" viewBox="0 0 21 21" fill="none" xmlns="http://www.w3.org/2000/svg">
<g id="icon/login">
<path id="Vector" fill-rule="evenodd" clip-rule="evenodd" d="M17.5153 2.75732C17.6921 2.75732 17.8617 2.82756 17.9867 2.95258C18.1117 3.0776 18.182 3.24718 18.182 3.42399V17.093C18.182 17.4612 17.8835 17.7597 17.5153 17.7597H11.3493C10.9811 17.7597 10.6826 17.4612 10.6826 17.093C10.6826 16.7248 10.9811 16.4263 11.3493 16.4263H16.8486V4.09068L11.3493 4.09082C10.9811 4.09083 10.6826 3.79236 10.6826 3.42417C10.6826 3.05598 10.9811 2.7575 11.3493 2.75749L17.5153 2.75732ZM13.6447 10.7389C13.7754 10.6132 13.8493 10.4396 13.8493 10.2583C13.8493 10.077 13.7754 9.90344 13.6447 9.77775L9.31136 5.61108C9.04595 5.35588 8.62393 5.36416 8.36873 5.62956C8.11353 5.89497 8.12181 6.31699 8.38721 6.57219L11.5274 9.59163H3.51725C3.14906 9.59163 2.85059 9.89011 2.85059 10.2583C2.85059 10.6265 3.14906 10.925 3.51725 10.925H11.5274L8.38721 13.9444C8.12181 14.1996 8.11353 14.6216 8.36873 14.887C8.62392 15.1524 9.04595 15.1607 9.31136 14.9055L13.6447 10.7389Z" fill="#414142"/>
</g>
</svg>
