<?xml version="1.0" encoding="utf-8"?>
<!-- Generator: Adobe Illustrator 25.0.1, SVG Export Plug-In . SVG Version: 6.00 Build 0)  -->
<svg version="1.1" id="레이어_1" xmlns="http://www.w3.org/2000/svg" xmlns:xlink="http://www.w3.org/1999/xlink" x="0px"
	 y="0px" viewBox="0 0 200 29" style="enable-background:new 0 0 200 29;" xml:space="preserve">
<style type="text/css">
	.st0{fill:#28ADBA;}
	.st1{fill:#FFFFFF;}
	.st2{fill:#616173;}
	.st3{fill:#172547;}
</style>
<g>
	<path class="st0" d="M29.52,28.03c0,0.61-0.49,1.1-1.1,1.1H1.74c-0.61,0-1.1-0.49-1.1-1.1V1.34c0-0.61,0.49-1.1,1.1-1.1h26.68
		c0.61,0,1.1,0.49,1.1,1.1V28.03z"/>
	<g>
		<path class="st1" d="M14.25,8.47h-4.11V9.9h2.87v3.86h-1.27v-2.89H5.86V9.9h2.98V8.47H4.71V7.48h6.67
			c0.11-0.63,0.23-1.84,0.27-2.51H5.99V4h6.99c-0.03,0.9-0.2,2.59-0.33,3.48h1.6V8.47z"/>
		<path class="st1" d="M21.02,4.45c-0.04,4.03-1.84,5.88-4.41,7.27l-0.8-0.86c2.62-1.43,3.81-2.98,3.88-5.4h-3.47V4.45H21.02z
			 M23.84,3.71v3.75h1.71v1.02h-1.71v5.25h-1.26V3.71H23.84z"/>
		<path class="st1" d="M14.25,20.79H4.71V19.8h3.56v-1.7h1.3v1.7h4.69V20.79z M13.15,23.56c0,1.15-1.19,2.13-3.66,2.13
			c-2.4,0-3.62-0.99-3.62-2.13c0-1.17,1.21-2.11,3.62-2.11C11.95,21.45,13.15,22.39,13.15,23.56z M12.98,15.8
			c-0.02,0.89-0.15,2.23-0.29,3.28h-1.27c0.12-0.9,0.19-1.5,0.22-2.3H5.99V15.8H12.98z M9.49,22.41c-1.43,0-2.28,0.51-2.28,1.14
			c0,0.67,0.85,1.18,2.28,1.18c1.47,0,2.3-0.49,2.3-1.18C11.79,22.9,10.95,22.41,9.49,22.41z"/>
		<path class="st1" d="M18.98,15.85c1.7,0,2.78,1.2,2.78,2.57c0,1.38-1.05,2.57-2.78,2.57c-1.73,0-2.78-1.19-2.78-2.57
			C16.2,17.05,17.28,15.85,18.98,15.85z M18.98,16.86c-1.02,0-1.47,0.75-1.47,1.56c0,0.82,0.45,1.55,1.47,1.55
			c1.02,0,1.45-0.73,1.45-1.55C20.43,17.61,20.02,16.86,18.98,16.86z M24.65,25.35h-6.91v-3.51H19v2.51h5.65V25.35z M24.44,22.68
			h-1.25v-7.17h1.25V22.68z"/>
	</g>
	<g>
		<path class="st2" d="M117.76,8.09h0.47v3.24h-0.47V8.09z"/>
		<path class="st2" d="M119.38,8.94v2.39h-0.48V8.08h0.56l1.3,2.4v-2.4h0.48v3.24h-0.57L119.38,8.94z"/>
		<path class="st2" d="M122.99,11.34h-0.48v-2.8h-0.95V8.09h2.37v0.45h-0.94V11.34z"/>
		<path class="st2" d="M124.31,8.09h2.09v0.46h-1.62v0.89h1.55v0.45h-1.55v0.98h1.66v0.46h-2.13V8.09z"/>
		<path class="st2" d="M126.89,8.08h0.47v2.79h1.54v0.46h-2.01V8.08z"/>
		<path class="st2" d="M129.24,8.08h0.47v2.79h1.54v0.46h-2.01V8.08z"/>
		<path class="st2" d="M131.58,8.09h2.09v0.46h-1.62v0.89h1.55v0.45h-1.55v0.98h1.66v0.46h-2.13V8.09z"/>
		<path class="st2" d="M134.04,9.7c0-1,0.52-1.71,1.36-1.71c0.81,0,1.21,0.69,1.28,1.11h-0.51c-0.07-0.29-0.3-0.64-0.76-0.64
			c-0.52,0-0.87,0.49-0.87,1.24c0,0.75,0.35,1.26,0.87,1.26c0.45,0,0.69-0.37,0.77-0.68h0.51c-0.09,0.48-0.5,1.14-1.29,1.14
			C134.56,11.41,134.04,10.71,134.04,9.7z"/>
		<path class="st2" d="M138.28,11.34h-0.48v-2.8h-0.95V8.09h2.37v0.45h-0.94V11.34z"/>
		<path class="st2" d="M139.56,10.31V8.09h0.48v2.09c0,0.38,0.12,0.78,0.68,0.78c0.55,0,0.68-0.4,0.68-0.78V8.09h0.48v2.22
			c0,0.65-0.45,1.11-1.16,1.11C140,11.42,139.56,10.95,139.56,10.31z"/>
		<path class="st2" d="M144.3,10.55h-1.33l-0.28,0.78h-0.49l1.16-3.25h0.55l1.16,3.25h-0.49L144.3,10.55z M143.12,10.1h1.02
			l-0.51-1.41L143.12,10.1z"/>
		<path class="st2" d="M145.42,8.08h0.47v2.79h1.54v0.46h-2.01V8.08z"/>
		<path class="st2" d="M150.05,10.12v1.21h-0.47V8.08h1.23c0.57,0,1.01,0.45,1.01,1.02c0,0.56-0.44,1.02-1.01,1.02H150.05z
			 M150.05,8.54v1.12h0.7c0.28,0,0.57-0.15,0.57-0.56c0-0.4-0.28-0.56-0.57-0.56H150.05z"/>
		<path class="st2" d="M153.31,10.04h-0.55v1.28h-0.47V8.08h1.24c0.57,0,1.01,0.42,1.01,0.96c0,0.44-0.29,0.83-0.68,0.96l0.86,1.33
			h-0.57L153.31,10.04z M152.74,8.53v1.04h0.71c0.32,0,0.58-0.17,0.58-0.52c0-0.35-0.26-0.51-0.58-0.51H152.74z"/>
		<path class="st2" d="M154.91,9.7c0-1,0.52-1.71,1.36-1.71c0.84,0,1.37,0.71,1.37,1.71c0,1.01-0.52,1.72-1.37,1.72
			C155.43,11.42,154.91,10.71,154.91,9.7z M155.41,9.7c0,0.74,0.34,1.26,0.86,1.26c0.52,0,0.87-0.52,0.87-1.26
			c0-0.73-0.34-1.24-0.87-1.24C155.75,8.46,155.41,8.97,155.41,9.7z"/>
		<path class="st2" d="M158.59,10.12v1.21h-0.47V8.08h1.23c0.57,0,1.01,0.45,1.01,1.02c0,0.56-0.44,1.02-1.01,1.02H158.59z
			 M158.59,8.54v1.12h0.7c0.28,0,0.57-0.15,0.57-0.56c0-0.4-0.28-0.56-0.57-0.56H158.59z"/>
		<path class="st2" d="M160.82,8.09h2.09v0.46h-1.62v0.89h1.55v0.45h-1.55v0.98h1.66v0.46h-2.13V8.09z"/>
		<path class="st2" d="M164.42,10.04h-0.55v1.28h-0.47V8.08h1.24c0.57,0,1.01,0.42,1.01,0.96c0,0.44-0.29,0.83-0.68,0.96l0.86,1.33
			h-0.57L164.42,10.04z M163.86,8.53v1.04h0.71c0.32,0,0.58-0.17,0.58-0.52c0-0.35-0.26-0.51-0.58-0.51H163.86z"/>
		<path class="st2" d="M167.27,11.34h-0.48v-2.8h-0.95V8.09h2.37v0.45h-0.94V11.34z"/>
		<path class="st2" d="M169.84,11.33h-0.45V10.1l-1.05-2.01h0.49l0.78,1.49l0.79-1.49h0.49l-1.05,2.01V11.33z"/>
		<path class="st2" d="M174.83,10.55h-1.33l-0.28,0.78h-0.49l1.16-3.25h0.55l1.16,3.25h-0.49L174.83,10.55z M173.65,10.1h1.02
			l-0.51-1.41L173.65,10.1z"/>
		<path class="st2" d="M175.95,11.33V8.08h1.27c0.53,0,0.86,0.33,0.91,0.72c0.05,0.38-0.14,0.66-0.36,0.8
			c0.23,0.12,0.52,0.4,0.49,0.86c-0.03,0.51-0.46,0.87-1.05,0.87H175.95z M176.43,8.54v0.87h0.74c0.32,0,0.47-0.18,0.47-0.45
			c0-0.25-0.17-0.42-0.47-0.42H176.43z M176.43,9.86v1.01h0.78c0.38,0,0.56-0.23,0.56-0.51c0-0.27-0.19-0.5-0.55-0.5H176.43z"/>
		<path class="st2" d="M178.74,8.09h0.47v3.24h-0.47V8.09z"/>
		<path class="st2" d="M179.88,8.08h0.47v2.79h1.54v0.46h-2.01V8.08z"/>
		<path class="st2" d="M182.24,8.09h0.47v3.24h-0.47V8.09z"/>
		<path class="st2" d="M184.52,11.34h-0.48v-2.8h-0.95V8.09h2.37v0.45h-0.94V11.34z"/>
		<path class="st2" d="M187.09,11.33h-0.45V10.1l-1.05-2.01h0.49l0.78,1.49l0.79-1.49h0.49l-1.05,2.01V11.33z"/>
		<path class="st2" d="M191.4,11.34h-0.48v-2.8h-0.95V8.09h2.37v0.45h-0.94V11.34z"/>
		<path class="st2" d="M192.72,8.09h2.09v0.46h-1.62v0.89h1.55v0.45h-1.55v0.98h1.66v0.46h-2.13V8.09z"/>
		<path class="st2" d="M195.12,10.24h0.47c0,0.43,0.32,0.73,0.74,0.73c0.38,0,0.59-0.18,0.64-0.45c0.08-0.42-0.4-0.56-0.7-0.64
			c-0.14-0.04-0.29-0.07-0.44-0.14c-0.38-0.17-0.62-0.44-0.6-0.87c0.03-0.41,0.36-0.88,1.07-0.88c0.81,0,1.11,0.69,1.08,1.06h-0.47
			c0-0.32-0.21-0.6-0.61-0.6c-0.4,0-0.56,0.22-0.57,0.46c-0.01,0.26,0.18,0.38,0.38,0.45c0.11,0.04,0.25,0.08,0.4,0.12
			c0.15,0.05,0.32,0.1,0.48,0.18c0.3,0.16,0.51,0.47,0.48,0.86c-0.05,0.48-0.45,0.92-1.15,0.92
			C195.55,11.43,195.1,10.8,195.12,10.24z"/>
		<path class="st2" d="M199.06,11.34h-0.48v-2.8h-0.95V8.09H200v0.45h-0.94V11.34z"/>
	</g>
	<path class="st3" d="M68.32,8.33c-0.59-0.43-1.35-0.65-2.26-0.65H51.69l-1.52,4.29h12.21c0.76,0,1.14,0.24,1.14,0.73
		c0,0.06-0.01,0.12-0.02,0.18l-0.23,0.64c-0.09,0.29-0.23,0.49-0.41,0.59c-0.23,0.12-0.61,0.18-1.14,0.18H49.35l-4.1,11.61
		l4.96,0.02l2.63-7.38h12.16c1.05-0.21,1.79-0.91,2.22-2.1l1.74-4.87c0.18-0.5,0.27-0.97,0.27-1.39
		C69.21,9.38,68.92,8.76,68.32,8.33"/>
	<polygon class="st3" points="43.17,7.61 36.61,25.9 42.07,25.89 48.52,7.65 	"/>
	<path class="st0" d="M87.72,7.69h-0.09H74.08h-0.09c-1.31,0-1.8,0.5-2.18,1.34l-1.04,2.95h12.54c0.69,0,1.03,0.26,1.03,0.79
		c0,0.12-0.02,0.25-0.07,0.39l-0.34,1.06H72.18c-1.46,0-2.43,0.69-2.9,2.06l-1.97,5.65c-0.15,0.41-0.23,0.86-0.23,1.35
		c0,0.72,0.17,1.31,0.5,1.78c0.41,0.55,1.03,0.83,1.87,0.83h15.33l3.96-11.22l1.18-3.36c0.14-0.38,0.21-0.78,0.21-1.21
		C90.14,8.5,89.33,7.69,87.72,7.69 M81.74,21.42h-8.88c-0.59,0-0.88-0.29-0.88-0.87c0-0.2,0.03-0.4,0.1-0.63l0.34-0.9
		c0.26-0.74,0.8-1.1,1.61-1.1h8.94L81.74,21.42z"/>
	<path class="st3" d="M92.62,7.72l-0.66,1.85c0,0,0,0-0.01,0.03l-0.16,0.45c-0.22,0.66-0.3,1.93,1.37,2.01h5.4l-4.91,13.91h4.98
		l4.91-13.91h7.26l1.53-4.34H92.62z"/>
	<g>
		<path class="st2" d="M117.81,16.23v-1.26h6.16v1.26h-2.32v2.09c0,0.67-0.05,1.3-0.15,1.87c0.53,1.22,1.63,2.76,2.64,3.85
			l-0.86,1.09c-0.76-0.77-1.79-1.93-2.41-2.84c-0.62,1.4-1.6,2.44-2.76,3.1l-0.69-1.11c2.01-1.49,2.67-3.66,2.67-5.95v-2.09H117.81z
			 M126.75,26.16h-1.5V14.62h1.5V26.16z"/>
		<path class="st2" d="M132.03,15.85c-0.01,0.28-0.04,0.56-0.09,0.83c0.57,0.91,2.02,2.11,2.93,2.85l-0.71,1.14
			c-0.71-0.44-2.05-1.48-2.83-2.28c-0.74,1.32-1.94,2.29-3.19,2.64l-0.54-1.1c1.56-0.8,2.83-2.05,2.88-4.08l0.03-1.1h1.55
			L132.03,15.85z M128.95,23.16v-1.28h8.17v4.34h-1.51v-3.06H128.95z M137.12,21.23h-1.51v-6.61h1.51V21.23z"/>
		<path class="st2" d="M138.4,16.23v-1.26h4.76v1.26h-1.65v2.49c0,0.58-0.04,1.13-0.1,1.65c0.44,1.27,1.38,2.57,2.06,3.6l-0.78,1.1
			c-0.38-0.38-1.25-1.57-1.82-2.5c-0.47,1.24-1.19,2.19-2.12,2.83L138,24.28c1.59-1.4,2.02-3.44,2.02-5.56v-2.49H138.4z
			 M143.81,14.62h1.45v4.48h0.91v-4.48h1.47v11.54h-1.47v-5.65h-0.91v5.65h-1.45V14.62z"/>
		<path class="st2" d="M152.66,16.28c-0.01,0.26-0.03,0.52-0.07,0.77c0.62,0.95,1.95,2.42,2.8,3.15l-0.77,1.1
			c-0.69-0.48-1.85-1.6-2.61-2.48c-0.69,1.36-1.83,2.36-3.08,2.71l-0.54-1.1c1.56-0.81,2.66-2.11,2.71-4.15l0.03-1.49h1.56
			L152.66,16.28z M157.93,26.16h-8.23v-4.02h1.54v2.79h6.69V26.16z M157.67,17.66h1.3v1.4h-1.3v3.79h-1.5v-8.23h1.5V17.66z"/>
		<path class="st2" d="M169.07,19.61v1.22h-9.72v-1.22H169.07z M159.96,24.11c0-1.45,1.36-2.43,4.25-2.43
			c2.89,0,4.25,0.98,4.25,2.43c0,1.45-1.36,2.44-4.25,2.44C161.32,26.55,159.96,25.56,159.96,24.11z M160.09,14.68h1.52v2.62h6.82
			v1.22h-8.34V14.68z M161.48,24.11c0,0.88,1.19,1.2,2.73,1.2c1.54,0,2.74-0.31,2.74-1.2c0-0.88-1.19-1.19-2.74-1.19
			C162.67,22.92,161.48,23.23,161.48,24.11z"/>
		<path class="st2" d="M174.39,19.96c0.73,0,1.45-0.12,2.17-0.38l0.1,1.05c-0.57,0.47-1.62,0.54-2.58,0.54h-3.9v-3.76h3.8v-1.35
			h-3.8v-1.22h5.3v3.76h-3.8v1.35H174.39z M170.95,23.42v-1.28h8.17v4.08h-1.5v-2.8H170.95z M179.12,21.49h-1.48v-2.27h-1.58V17.9
			h1.58v-0.97h-1.58V15.6h1.58v-0.98h1.48V21.49z"/>
		<path class="st2" d="M184.34,18.31c0,0.66-0.07,1.27-0.17,1.84c0.56,1.23,1.78,2.82,2.79,3.86l-0.86,1.1
			c-0.79-0.71-1.93-1.97-2.58-2.89c-0.67,1.42-1.71,2.47-2.88,3.15l-0.69-1.11c2.01-1.49,2.83-3.66,2.83-5.95v-3.37h1.56V18.31z
			 M189.49,26.16h-1.5V14.62h1.5V26.16z"/>
		<path class="st2" d="M190.63,16.56V15.4H193v-1.11h1.61v1.11h2.39v1.17H190.63z M190.78,19c0-1.44,1.36-2.02,3.02-2.02
			c1.66,0,3.02,0.58,3.02,2.02c0,1.44-1.36,2.01-3.02,2.01C192.14,21.01,190.78,20.44,190.78,19z M191.69,26.16v-4.54h8.17v4.54
			H191.69z M192.26,19c0,0.66,0.77,0.82,1.54,0.82c0.78,0,1.54-0.16,1.54-0.82c0-0.66-0.77-0.83-1.54-0.83
			C193.03,18.17,192.26,18.34,192.26,19z M193.19,24.94h5.16v-2.1h-5.16V24.94z M199.86,20.97h-1.5v-2.1h-1.4v-1.35h1.4v-2.9h1.5
			V20.97z"/>
	</g>
</g>
<g>
</g>
<g>
</g>
<g>
</g>
<g>
</g>
<g>
</g>
<g>
</g>
<g>
</g>
<g>
</g>
<g>
</g>
<g>
</g>
<g>
</g>
<g>
</g>
<g>
</g>
<g>
</g>
<g>
</g>
</svg>
