<svg width="21" height="21" viewBox="0 0 21 21" fill="none" xmlns="http://www.w3.org/2000/svg">
<g id="icon/logout">
<path id="Vector" fill-rule="evenodd" clip-rule="evenodd" d="M3.84832 2.65967C3.67151 2.65966 3.50194 2.7299 3.37691 2.85492C3.25188 2.97995 3.18164 3.14952 3.18164 3.32633V16.9954C3.18164 17.3635 3.48012 17.662 3.84831 17.662H10.0143C10.3825 17.662 10.681 17.3635 10.681 16.9954C10.681 16.6272 10.3825 16.3287 10.0143 16.3287H4.51497V3.99302L10.0143 3.99316C10.3825 3.99317 10.681 3.6947 10.681 3.32651C10.681 2.95833 10.3825 2.65984 10.0143 2.65983L3.84832 2.65967ZM18.3091 10.6404C18.4398 10.5147 18.5137 10.3412 18.5137 10.1598C18.5137 9.97849 18.4398 9.80497 18.3091 9.67928L13.9757 5.51261C13.7103 5.25741 13.2883 5.26569 13.0331 5.53109C12.7779 5.7965 12.7862 6.21852 13.0516 6.47372L16.1918 9.49317H8.18164C7.81345 9.49317 7.51497 9.79164 7.51497 10.1598C7.51497 10.528 7.81345 10.8265 8.18164 10.8265H16.1918L13.0516 13.8459C12.7862 14.1011 12.7779 14.5232 13.0331 14.7886C13.2883 15.054 13.7103 15.0622 13.9757 14.8071L18.3091 10.6404Z" fill="#414142"/>
</g>
</svg>
