<svg width="21" height="21" viewBox="0 0 21 21" fill="none" xmlns="http://www.w3.org/2000/svg">
<g id="icon/myinfo">
<path id="Vector" fill-rule="evenodd" clip-rule="evenodd" d="M8.10938 5.15926C8.10938 4.05469 9.00481 3.15926 10.1094 3.15926C11.2139 3.15926 12.1094 4.05469 12.1094 5.15926C12.1094 6.26383 11.2139 7.15926 10.1094 7.15926C9.00481 7.15926 8.10938 6.26383 8.10938 5.15926ZM10.1094 1.82593C8.26843 1.82593 6.77604 3.31831 6.77604 5.15926C6.77604 7.00021 8.26843 8.49259 10.1094 8.49259C11.9503 8.49259 13.4427 7.00021 13.4427 5.15926C13.4427 3.31831 11.9503 1.82593 10.1094 1.82593ZM16.9776 11.4861C12.9653 8.68779 7.6546 8.61011 3.56214 11.2899L3.28765 11.4697C2.8644 11.7468 2.60938 12.2186 2.60938 12.7246V16.1587C2.60938 16.9872 3.28095 17.6587 4.10937 17.6587H16.1087C16.9372 17.6587 17.6087 16.9872 17.6087 16.1587V12.6957C17.6087 12.2136 17.3731 11.7619 16.9776 11.4861ZM4.29257 12.4054C7.92953 10.0238 12.6491 10.0929 16.2149 12.5798C16.2528 12.6062 16.2754 12.6495 16.2754 12.6957V16.1587C16.2754 16.2508 16.2008 16.3254 16.1087 16.3254H4.10937C4.01733 16.3254 3.94271 16.2508 3.94271 16.1587V12.7246C3.94271 12.6683 3.97104 12.6159 4.01807 12.5851L4.29257 12.4054Z" fill="#414142"/>
</g>
</svg>
